<svg xmlns="http://www.w3.org/2000/svg" xmlns:svg="http://www.w3.org/2000/svg" id="svg2" width="64" height="64" version="1.1"><metadata id="metadata8"/><path style="fill:#018dd8;fill-opacity:1;stroke:#000;stroke-width:.14365776;stroke-linecap:butt;stroke-linejoin:round;stroke-miterlimit:4;stroke-opacity:1;stroke-dasharray:none" id="path2987" d="M 20.896312,0.07229389 C 20.734077,0.07755342 20.51212,0.12805248 20.237881,0.23989501 18.298619,1.0307534 13.525808,5.397157 12.653948,8.1530434 c 0.907248,7.5480026 9.887642,6.4192516 12.09718,8.4279216 -0.473472,1.176508 -2.295911,1.818976 -3.070684,2.22071 -1.664327,-0.157824 -2.829201,-0.876349 -6.889587,0.0419 0,0 -3.943983,0.819087 -6.2969976,1.005606 -0.832164,0.229562 -0.357549,0.877799 -0.0419,1.107362 3.0417026,1.8365 5.6389096,2.181547 7.8054046,2.454154 2.180844,0.129127 4.372546,-1.204549 5.764268,-1.37672 2.30901,-0.0058 2.031461,1.33826 2.011209,2.95097 0.02869,1.233897 2.037255,4.994009 1.807693,6.500513 0.04305,1.736065 -0.57463,2.753032 -0.57463,4.806549 0.07174,1.994324 1.46052,4.606476 1.46052,6.428685 -0.100434,1.460524 -1.190201,4.066365 -1.37672,7.176902 -0.436151,4.086182 1.482259,4.672576 6.273056,4.758663 7.520926,-0.04304 7.802993,-1.359245 6.8417,-7.428303 -0.143475,-1.377375 -0.71865,-2.271134 -1.005604,-4.279804 0,-1.607793 1.322849,-4.212561 1.322849,-5.794197 0.485184,-4.007656 -0.670857,-4.77978 -0.574631,-5.937853 0.143475,-1.463461 1.948884,-5.596701 1.891494,-6.572343 0.09405,-0.827633 -0.198162,-2.605982 1.723892,-2.496053 3.341938,0.179943 2.571239,1.309235 5.626596,1.286934 2.912574,0.01434 7.889212,-2.250638 7.889212,-2.250638 0.731729,-0.387386 0.918112,-1.231906 0.0838,-1.418621 -2.955618,-0.114781 -3.49578,-0.52025 -6.422704,-1.065464 -1.575632,-0.28434 -4.012543,-0.59853 -6.488542,0 C 40.989966,18.441659 39.986395,17.209798 39.326403,16.521108 40.043786,14.914171 51.293131,15.90727 51.321827,7.6143264 49.854289,4.6204145 45.600063,0.73641248 43.540364,0.13813727 42.870774,-0.12564123 42.954066,0.57377636 43.055519,0.53319603 55.290778,9.8060193 45.267958,12.395261 41.762599,12.187432 39.294802,12.416993 23.226469,12.462594 21.734313,12.319118 19.18043,12.00347 9.0124144,9.6208559 20.896309,0.7965688 c 0.475797,-0.35329881 0.486707,-0.7400122 0,-0.72427491 z M 32.023803,14.779258 c 0.153005,-0.0062 0.25454,0.05697 0.371116,0.137672 0.04305,1.334331 2.207594,2.693709 2.250639,3.741087 0.105939,0.150125 -0.08654,0.388983 -0.359145,0.317244 -0.387388,-0.459124 -0.944548,-1.275326 -1.891494,-1.562278 l -0.0419,5.937856 c -0.01559,0.593872 -1.132257,1.559999 -1.867551,1.562278 -0.48782,0 -0.977092,-0.270356 -1.149263,-1.059475 -0.172171,-0.473473 1.020442,-1.980828 2.340425,-1.622136 l 0,-7.362462 c 0.14527,-0.05918 0.25537,-0.08609 0.347173,-0.08979 z m -6.213198,40.912535 c 0.01434,3.185179 1.173657,4.418202 1.532349,4.992107 0.516515,0.746078 0.749362,0.08591 0.706317,-0.143658 -0.07174,-0.48782 -0.230976,-1.322521 -0.173586,-2.011208 0.157824,-0.659993 0.745841,-0.213619 0.760189,0.317244 0.129129,0.746078 0.0838,5.081893 0.0838,5.081893 2.410407,-2.066061 1.549018,-3.731256 2.424225,-4.477334 1.018683,-0.774773 1.679798,-1.37534 1.837623,-2.178809 0.258258,-0.717383 1.293973,-0.450309 1.17919,0.353159 -0.08608,1.865195 0.214254,3.031648 0.185558,4.351633 0.114781,1.291288 0.889081,0.78825 1.520378,0.257387 0,0 1.863343,-2.465597 2.322468,-4.89035 0.01434,-1.291288 -0.526962,-1.47866 -1.646079,-1.622136 l -10.732432,-0.02993 z"/></svg>